<svg xmlns="http://www.w3.org/2000/svg" viewBox="0 0 800 800" style="enable-background:new 0 0 800 800;">
  <style>
    .st0 { fill: #E3EFF2; } .st1 { enable-background: new; } .st2 { fill: #6B78A3; } .st3 { fill: #373E54; } .st4 { fill: #505A7A; } .st5 { fill: #433953; } .st6 { fill: #FFF9F0; } .st7 { fill: #5F5AAD; } .st8 { fill: #A0AEE2; } .st9 { fill: #847ED3; } .st10 { fill: #9AADDC; } .st11 { fill: #BDDD75; } .st12 { fill: #8FA15F; } .st13 { fill: #ACC96B; } .st14 { fill: #C3E8F2; } .st15 { fill: #EEE1A6; } .st16 { fill: #BB9474; } .st17 { fill: #C6E87B; } .st18 { fill: #ACE3F2; } .st19 { fill: #D6F7FF; } .st20 { fill: #A8CE76; } .st21 { fill: #DEDBE8; } .st22 { fill: #BBA2BC; } .st23 { fill: #EAF7F8; } .st24 { fill: #6F73B0; } .st25 { fill: #716BAF; } .st26 { fill: #BCDCF5; } .st27 { fill: #865C85; } .st28 { fill: #433760; } .st29 { fill: #E8E8E8; } .st30 { fill: #F8F8F8; } .st31 { fill: #84A33F; } .st32 { fill: #E15367; } .st33 { fill: #C73247; } .st34 { fill: #F55A70; } .st35 { fill: #FFFFFF; } .st36 { fill: #F0F1F2; } .st37 { fill: #EDEDED; } .st38 { fill: #988499; } .st39 { fill: #ADBCF5; } .st40 { display: none; } .st41 { display: inline; } .st42 { fill: #19476B; }
  </style>
  <path id="BACKGROUND" d="M0 0h800v800H0z" class="st0"/>
  <g id="OBJECTS">
    <g class="ground">
      <g class="st1">
        <path d="M746.8 473.8L354 701.8c-8.6 5-22.7 5-31.4 0L53.3 546.3c-4.4-2.5-6.6-6-6.6-9.2v23c0 4 2 7 6.5 10l269.3 155c8.7 5 22.8 5 31.5 0l392.7-228c4.3-2 6.5-6 6.5-9v-23c0 4-2 7-6.4 9z" class="st2"/>
        <path d="M746.8 468.3L354 696.3c-8.6 5-22.7 5-31.4 0L53.3 540.8c-4.4-2.5-6.6-6-6.6-9.2V554c0 3.3 2.2 6.7 6.6 9.2l269.3 155.5c8.7 5 22.8 5 31.5 0l393-228c5-2.5 7-5.8 7-9V459c0 3.3-2 6.6-6 9z" class="st3"/>
        <path d="M746.7 450c8.7 5 8.8 13.2 0 18.3L354 696.3c-8.5 5-22.6 5-31.3 0L53.3 540.8c-8.7-5-8.8-13.2 0-18.3l392.6-228c8-5 22-5 31 0L746 450z" class="st4"/>
      </g>
      <path d="M719 462.7c-.8 2-2.6 3.8-5.2 5.3L383.4 660c-7.7 4.4-20.2 4.4-28 0L116.2 521.6c-2.7-1.5-4.4-3.4-5.3-5.4-2-3.8 0-8 5-10.8l330-192c7-4.4 20-4.4 28 0l239 138.2c5 3 7 7.2 5 11z" class="st5"/>
      <path d="M719 462.7c-.8 2-2.6 3.8-5.2 5.3L655 502 383.6 660c-7.7 4.4-20.2 4.4-28 0l-96-55.5-12.2-7-131-75.7c-2.7-1.5-4.4-3.4-5.3-5.4 1-2 3-3.8 6-5.3l154-90 46-26 130-75c8-4 20-4 28 0l146 84 93 54c3 2 5 4 5 6z" class="st6"/>
      <path d="M165 615.8v6l39 22.6v-6z" class="st1 st7"/>
      <path d="M165 621.8l5-3-5-3z" class="st8"/>
      <path d="M575.6 576.5v6l-39 22.6v-6z" class="st1 st7"/>
      <path d="M575.6 582.5l-5-3 5-3z" class="st8"/>
      <path d="M525 605.8v6L505.3 623v-6z" class="st1 st7"/>
      <path d="M525 611.8l-5.2-3 5-3z" class="st8"/>
      <path d="M214.3 594.8c5.7 3.3 5.7 8.6 0 12-5.5 3.2-14.7 3.2-20.4 0-6-3.4-6-8.7-1-12 5-3.3 15-3.3 20 0z" class="st9"/>
      <path d="M600.8 371.6c2 1.2 2 3 0 4.2-2 1.2-5.2 1.2-7.2 0s-2-3 0-4.2c2-1 5.2-1 7.2 0z" class="st10"/>
      <path d="M209.8 597.4c3.2 1.8 3.2 4.8 0 6.7-3.2 2-8.3 2-11.5 0-3.2-1-3.2-4 0-6s8.3-2 11.5 0z" class="st8"/>
      <path d="M543 370.4L462.5 417l-80.8-46.6 80.3-46.6z" class="st11"/>
      <path d="M523 370.4l-60.5 35.2-61-35.2 60.6-35.2z" class="st12"/>
      <path d="M704.3 463.6L624 510.3l-144.8-83.6 80.3-46.7z" class="st11"/>
      <path d="M449.5 424.4L381 464.2l-81-46.6 68.7-40z" class="st11"/>
      <path d="M271.3 527.3L202.7 567 122 520.6l68.4-40z" class="st11"/>
      <path d="M340 567l-68.7 39.8-50.6-29.3 68.5-40z" class="st11"/>
      <path d="M611 517.7l-68.4 40-80.8-46.8 68.5-40z" class="st11"/>
      <path d="M513.8 461.5l-68.6 40-47-27.2 68.7-40z" class="st11"/>
      <path d="M532.7 564.4L452.3 611 308 528l80.5-46.7z" class="st11"/>
      <path d="M416.5 611l-46-26.5-20.2-11.6-68.6 39 50.7 29 33.2-20 15.7 9z" class="st11"/>
      <path d="M238.3 508.8L191 536.2l-47.6-27.4 47.3-27.5z" class="st13"/>
      <path d="M235.4 529.7c6.7 4 6.7 10 0 14-6.5 4-17.4 4-24 0-6.7-4-6.7-10 0-14 6.5-3.8 17.3-3.8 24 0z" class="st14"/>
    </g>
    <g class="ground">
      <g class="st1">
        <path d="M611 509.5v8.2l-46 26.7v-8.2z" class="st15"/>
        <path d="M565 536.2v8.2l-46-26.7v-8.2z" class="st16"/>
        <path d="M611 509.5l-46 26.7-46.2-26.7 46-26.7z" class="st17"/>
      </g>
      <path d="M580.3 501.4c7.8 4.5 7.8 11.7 0 16.2s-20 4.5-28 0c-7.7-4.5-7.7-11.7 0-16.2s20.2-4.5 28 0z" class="st18"/>
      <path d="M577.7 503c6.3 3.5 6.3 9.4 0 13-6.2 3.7-16.4 3.7-22.7 0-6.3-3.5-6.3-9.4 0-13 6.2-3.7 16.4-3.7 22.7 0z" class="st19"/>
    </g>
    <g class="tree">
      <path d="M428 404.6v27.7l9.8-5.7z" class="st20"/>
      <path d="M428 404.6v27.7l-10-5.7z" class="st12"/>
    </g>
    <g class="house">
      <g class="st1">
        <path d="M561 457v10l42.7 25v-10z" class="st21"/>
        <path d="M603.6 482v10l29.8-17.3v-10z" class="st22"/>
        <path d="M561 457l42.6 25 29.8-17.3-42.6-24.8z" class="st23"/>
      </g>
      <g class="st1">
        <path d="M570.2 360v99.2l31.8 18.5v-99.2z" class="st10"/>
        <path d="M602 378.5v99.2l22.2-13v-99z" class="st24"/>
        <path d="M570.2 360l31.8 18.5 22.2-12.8-31.8-18.5z" class="st23"/>
      </g>
      <g class="st1">
        <path d="M563 347.4v9.4l40.3 23.3v-9z" class="st21"/>
        <path d="M603.3 370.7v9.4l28-16v-9z" class="st22"/>
        <path d="M563 347.4l40.3 23.3 28-16.2-40.2-23.3z" class="st23"/>
      </g>
      <g class="st1">
        <path d="M570.2 340.6v7.5l31.8 19v-8z" class="st10"/>
        <path d="M602 359v7.6l22.3-13v-7.3z" class="st24"/>
        <path d="M570.2 340.6L602 359l22.2-12.7-31.8-18.5z" class="st23"/>
      </g>
      <g class="st1">
        <path d="M585.7 337.5v6.4l11.5 6v-6z" class="st10"/>
        <path d="M597.2 344.2v6.4l11.6-6.7v-7z" class="st25"/>
        <path d="M585.7 337.5l11.5 6.7 11.5-6.7-11.5-6.7z" class="st26"/>
      </g>
      <g class="st1">
        <path d="M594.3 301.5v36.2l3 1.7V303z" class="st27"/>
        <path d="M597.2 303v36.4l3-1.7v-36.2z" class="st28"/>
        <path d="M594.3 301.5l3 1.6 2.8-1-2-1z" class="st27"/>
      </g>
    </g>
    <g class="house">
      <g class="st1">
        <path d="M682.6 389.2v77.5l-20.8 12v-77.5z" class="st21"/>
        <path d="M661.8 401.2v77.6l-21-12V389z" class="st22"/>
        <path d="M682.6 389.2l-20.8 12-21-12 20.8-12z" class="st23"/>
      </g>
      <g class="st1">
        <path d="M686.5 396.4V469l-10.6 6.2v-72.6z" class="st21"/>
        <path d="M676 402.6v72.6l-4-2.2v-72.7z" class="st22"/>
        <path d="M686.5 396.4l-10.6 6.2-4-2.3 10-6.3z" class="st23"/>
      </g>
      <g class="st1">
        <path d="M678.2 379.2v9.7l-16.4 9v-10z" class="st21"/>
        <path d="M662 388.6l-.2 9.8-16.4-9.5-.2-10z" class="st22"/>
        <path d="M678.2 379.2l-16.3 9.4-17-9.4 16-9.5z" class="st23"/>
      </g>
      <g class="st1">
        <path d="M674.5 371.2v7.5l-12.7 7.4v-7z" class="st21"/>
        <path d="M661.8 378.5v7.6l-12.8-7v-8z" class="st22"/>
        <path d="M674.5 371.2l-12.7 7.3-12.7-7.3 13-7.4z" class="st23"/>
      </g>
    </g>
    <g class="tree">
      <path d="M648 460.7v27.6l9.8-5.7z" class="st20"/>
      <path d="M648 460.7v27.6l-10-5.7z" class="st12"/>
    </g>
    <g class="house">
      <path d="M569 435.3l-26 15.2-26.4-15.2 26.2-15.2z" class="st1 st12"/>
      <g class="st1">
        <path d="M561.3 397v38.5L543 446v-38.5z" class="st21"/>
        <path d="M543 407.5V446l-18.5-10.5V397z" class="st22"/>
        <path d="M561.3 397L543 407.4 524.5 397l18.3-10.8z" class="st23"/>
      </g>
      <g class="st1">
        <path d="M566.3 397.2v4.2L543 415v-4.2z" class="st29"/>
        <path d="M543 410.8v4l-23.6-13.4v-4.2z" class="st22"/>
        <path d="M566.3 397.2L543 410.8l-23.5-13.6 23.3-13.6z" class="st23"/>
      </g>
      <g class="st1">
        <path d="M566.3 410v4L543 427.8v-4.2z" class="st29"/>
        <path d="M543 423.5v4.2L519.4 414v-4z" class="st22"/>
      </g>
      <path d="M524.5 410v-3l-2.6 1.4-3 1.6 23 13.5v-3z" class="st23"/>
      <path d="M563.8 408.4l-2.5-1.4v3L543 420.5v3l23.3-13.6z" class="st30"/>
      <g class="st1">
        <path d="M566.3 420.3v4.2L543 438v-4z" class="st29"/>
        <path d="M543 434v4l-23.6-13.5v-4.2z" class="st22"/>
      </g>
      <path d="M524.5 420.3v-3l-2.6 1.5-3 1.5 24 13.7v-3z" class="st23"/>
      <path d="M563.8 418.8l-2.5-1.5v3L543 431v3l23.3-13.7z" class="st30"/>
    </g>
    <g class="tree">
      <path d="M505.3 407.2v27.6l10-5.7z" class="st20"/>
      <path d="M505.3 407.2v27.6l-9.8-5.7z" class="st12"/>
    </g>
    <g class="ground st1">
      <path d="M565 541v3.4l-16.6 9.8v-3.5z" class="st15"/>
      <path d="M548.4 550.7v3.5l-17-9.8V541z" class="st16"/>
      <path d="M565 541l-16.6 9.7-17-9.8 16.7-10z" class="st17"/>
    </g>
    <g class="ground st1">
      <path d="M381.3 637.4v3.6l-16.8 9.8v-3.6z" class="st15"/>
      <path d="M364.5 647.2v3.6l-17-9.8v-3.6z" class="st16"/>
      <path d="M381.3 637.4l-16.8 9.8-17-9.8 16.8-9.8z" class="st17"/>
    </g>
    <g class="ground st1">
      <path d="M362 464l-.2 11-77 44.7.2-11z" class="st13"/>
      <path d="M285 508.7v11L207.4 475v-11z" class="st31"/>
      <path d="M362 464l-77 44.7-77.4-44.7 77-44.7z" class="st11"/>
    </g>
    <g class="house">
      <g class="st1">
        <path d="M321 450l-.2 10-42.6 24.6v-10z" class="st21"/>
        <path d="M278.3 474.7v10l-30-17.2.2-10z" class="st22"/>
        <path d="M321 450l-42.7 24.7-29.8-17.2 42.6-24.8z" class="st23"/>
      </g>
      <g class="st1">
        <path d="M311.7 352.8V452l-32 18.4.2-99z" class="st32"/>
        <path d="M280 371.3l-.2 99-22.2-12.7v-99z" class="st33"/>
        <path d="M311.7 352.8L280 371.3l-22.3-12.8 31.8-18.5z" class="st23"/>
      </g>
      <g class="st1">
        <path d="M318.8 340.2v9.4L278.5 373v-9.5z" class="st21"/>
        <path d="M278.6 363.5v9.4l-28-17v-9z" class="st22"/>
        <path d="M318.8 340.2l-40.2 23.3-28-16.2 40-23.4z" class="st23"/>
      </g>
      <g class="st1">
        <path d="M311.7 333.4v7.5l-32 18 .2-8z" class="st21"/>
        <path d="M280 352l-.2 7.3-22.2-12.8V339z" class="st22"/>
        <path d="M311.7 333.4L280 352l-22.3-13 31.8-18.4z" class="st23"/>
      </g>
      <g class="st1">
        <path d="M278.6 334.8v4.5l-7.6 4.4v-4.5z" class="st21"/>
        <path d="M271 339.2v4.5l-7.7-4.4v-4.6z" class="st22"/>
        <path d="M278.6 334.8l-7.6 4.4-7.7-4.4 7.6-4.4z" class="st23"/>
      </g>
      <g class="st1">
        <path d="M276.2 331.3v3.2l-5.2 3v-3z" class="st21"/>
        <path d="M271 334.4v3l-5.4-3v-3z" class="st22"/>
        <path d="M276.2 331.3l-5.2 3-5.4-3 5.3-3z" class="st23"/>
      </g>
      <g class="st1">
        <path d="M301 455.2v23.2l-16.6 9.7v-23z" class="st21"/>
        <path d="M284.5 465v23l-6.3-3.4v-23.2z" class="st22"/>
        <path d="M301 455.2l-16.5 9.8-6.3-3.6 16.7-9.8z" class="st23"/>
      </g>
      <g class="st1">
        <path d="M288.5 442v15.7l1.2.7v-15.6z" class="st27"/>
        <path d="M289.7 442.8v15.6l1.2-.7V442z" class="st28"/>
        <path d="M288.5 442l1.2.8 1.2-.7h-2z" class="st27"/>
      </g>
    </g>
    <g class="tree">
      <path d="M231 442.3V470l10-5.8z" class="st20"/>
      <path d="M231 442.3V470l-9.7-5.8z" class="st12"/>
    </g>
    <g class="house">
      <path d="M500.2 458.5L474 473.7l-26.3-15.2 26.2-15.2z" class="st1 st12"/>
      <g class="st1">
        <path d="M492.3 420v38.6L474 469.3v-38.6z" class="st32"/>
        <path d="M474 430.7v38.6l-18.5-10.7V420z" class="st33"/>
        <path d="M492.3 420L474 430.8 455.6 420l18.3-10.6z" class="st23"/>
      </g>
      <g class="st1">
        <path d="M497.4 420.4v4L474 438.2v-4z" class="st29"/>
        <path d="M474 434v4l-23.5-13.4v-4.2z" class="st22"/>
        <path d="M497.4 420.4L474 434l-23.5-13.6 23.4-13.6z" class="st30"/>
      </g>
      <g class="st1">
        <path d="M497.4 433v4.3L474 451v-4.3z" class="st29"/>
        <path d="M474 446.7v4.2l-23.5-14v-4z" class="st22"/>
      </g>
      <path d="M455.5 433v-3l-2.5 1.6-2.5 1.5 23.5 14v-3z" class="st23"/>
      <path d="M495 431.6l-2.7-1.5v3L474 444v3l23.4-13.7z" class="st30"/>
      <g class="st1">
        <path d="M497.4 443.5v4L474 461.3v-4z" class="st29"/>
        <path d="M474 457v4.2l-23.5-13.5v-4.2z" class="st22"/>
      </g>
      <path d="M455.5 443.5v-3L453 442l-2.5 1.5L474 457v-3z" class="st23"/>
      <path d="M495 442l-2.7-1.5v3L474 454v3l23.4-13.5z" class="st30"/>
    </g>
    <g class="house">
      <path d="M467.3 477.5L441 492.7l-26-15.2 26.2-15.2z" class="st1 st12"/>
      <g class="st1">
        <path d="M459.4 439v38.6L441 488.3v-38.6z" class="st10"/>
        <path d="M441 449.7v38.6l-18.4-10.7V439z" class="st24"/>
        <path d="M459.4 439L441 449.8 422.8 439l18.3-10.6z" class="st23"/>
      </g>
      <g class="st1">
        <path d="M464.5 439.4v4L441 457.2v-4z" class="st29"/>
        <path d="M441 453v4l-23.4-13.5v-4z" class="st22"/>
        <path d="M464.5 439.4L441 453l-23.4-13.6 23.4-13.6z" class="st23"/>
      </g>
      <g class="st1">
        <path d="M464.5 452v4.3L441 469.8v-4z" class="st29"/>
        <path d="M441 465.7v4l-23.4-13.4V452z" class="st22"/>
      </g>
      <path d="M422.7 452v-3l-2.6 1.6-2 1.5 24 14v-3z" class="st23"/>
      <path d="M462 450.6l-2.6-1.5v3L441 463v3l23.5-13.6z" class="st30"/>
      <g class="st1">
        <path d="M464.5 462.5v4L441 480.3v-4z" class="st29"/>
        <path d="M441 476v4.2l-23.4-13.6v-4z" class="st22"/>
      </g>
      <path d="M422.7 462.4v-3L420 461l-2.4 1.5L441 476v-3z" class="st23"/>
      <path d="M462 461l-2.6-1.5v3L441 473v3l23.5-13.5z" class="st30"/>
    </g>
    <g class="tree">
      <path d="M483.2 489.5V517l9.8-5.5z" class="st20"/>
      <path d="M483.2 489.5V517l-10-5.5z" class="st12"/>
    </g>
    <g class="tree">
      <path d="M531.2 468v19l6.7-3.8z" class="st20"/>
      <path d="M531.2 468v19l-6.7-3.8z" class="st12"/>
    </g>
    <g class="tree">
      <path d="M246.2 460v18.6l6.7-3.8z" class="st20"/>
      <path d="M246.2 460v18.6l-6.6-3.8z" class="st12"/>
    </g>
    <g class="tree">
      <path d="M531.4 517.6v18.7l6.6-3.8z" class="st20"/>
      <path d="M531.4 517.6v18.7l-6.7-3.8z" class="st12"/>
    </g>
    <g class="tree">
      <path d="M598.6 495.4V514l6.7-3.7z" class="st20"/>
      <path d="M598.6 495.4V514l-6.6-3.7z" class="st12"/>
    </g>
    <g class="tree">
      <path d="M638 475.5v18.7l6.8-3.8z" class="st20"/>
      <path d="M638 475.5v18.7l-6.5-3.8z" class="st12"/>
    </g>
    <g class="tree">
      <path d="M565 476.4V495l6.6-3.7z" class="st20"/>
      <path d="M565 476.4V495l-6.7-3.7z" class="st12"/>
    </g>
    <g class="house">
      <g class="st1">
        <path d="M476.8 489l-.4 74.4 20.7 12 1-74.4z" class="st21"/>
        <path d="M497.5 501l-.4 74.4 21-12 1-74.4z" class="st22"/>
        <path d="M476.8 489l20.7 12 20.8-12-20.7-12z" class="st23"/>
      </g>
      <g class="st1">
        <path d="M487.8 484.8v5.4l9.7 5.6v-5.3z" class="st10"/>
        <path d="M497.5 490.5v5.3l9.7-5.6v-5.4z" class="st25"/>
        <path d="M487.8 484.8l9.7 5.7 9.7-5.7-9.6-5.6z" class="st26"/>
      </g>
      <g class="st1">
        <path d="M517 499l-.3 69.6-10.6 6.2 1-69.5z" class="st22"/>
        <path d="M506.5 505.3l-.4 69.5-3-2.3 1-69.5z" class="st21"/>
        <path d="M517 499l-10.5 6.3-4-2.3 10.7-6.2z" class="st23"/>
      </g>
      <g class="st1">
        <path d="M493.8 472.2v13l3.7 2v-12.8z" class="st27"/>
        <path d="M497.5 474.4v12.8l3.8-2v-13z" class="st28"/>
        <path d="M493.8 472.2l3.7 2.2 3.8-2.2-3.7-2.2z" class="st23"/>
      </g>
      <g class="st1">
        <path d="M492 470v3l5.5 3.2v-3z" class="st10"/>
        <path d="M497.5 473v3.2l5.7-3.2v-3z" class="st25"/>
        <path d="M492 470l5.5 3 5.7-3-5.6-3.4z" class="st26"/>
      </g>
      <g class="st1">
        <path d="M495 454.6V470l2.5 1.3V456z" class="st27"/>
        <path d="M497.5 456v15.3l2.5-1.4v-16z" class="st28"/>
        <path d="M495 454.6l2.5 1.4 2.4-1.4-3-1.4z" class="st27"/>
      </g>
    </g>
    <g class="house">
      <g class="st1">
        <path d="M333 450.7v77.6l21 12V463z" class="st22"/>
        <path d="M354 462.8v77.6l20.8-12v-77.7z" class="st21"/>
        <path d="M333 450.7l21 12 20.8-12-20.8-12z" class="st23"/>
      </g>
      <g class="st1">
        <path d="M329 458v72.6l10.8 6.2v-72.6z" class="st22"/>
        <path d="M339.7 464.2v72.6l4-2.3V462z" class="st21"/>
        <path d="M329 458l10.7 6.2 4-2.3-10.7-7z" class="st23"/>
      </g>
      <g class="st1">
        <path d="M379 458v72.6l-10.6 6.2v-72.6z" class="st21"/>
        <path d="M368.4 464.2v72.6l-4-2.3V462z" class="st22"/>
        <path d="M379 458l-10.6 6.2-4-2.3 10.6-7z" class="st23"/>
      </g>
      <g class="st1">
        <path d="M361.4 451v4.4l-7.6 4.4v-4.5z" class="st21"/>
        <path d="M353.8 455.3v4.5l-7.6-4.4v-4.6z" class="st22"/>
        <path d="M361.4 451l-7.6 4.3-7.6-4.4 7.6-5z" class="st23"/>
      </g>
    </g>
    <g class="house">
      <g class="st1">
        <path d="M396.5 545.3v3.8L380 559v-4z" class="st21"/>
        <path d="M380 554.8v4l-11.5-6.7v-3z" class="st22"/>
        <path d="M396.5 545.3l-16.5 9.5-11.5-6.6 16.5-9.6z" class="st23"/>
      </g>
      <g class="st1">
        <path d="M396.5 494.4v51.4l-16.5 9.6V504z" class="st10"/>
        <path d="M380 504v51.4l-11.5-6.7v-51.3z" class="st24"/>
        <path d="M396.5 494.4L380 504l-11.5-6.6 16.5-9.6z" class="st23"/>
      </g>
      <g class="st1">
        <path d="M396.5 491v4l-16.5 9.5v-3.8z" class="st21"/>
        <path d="M380 500.7v3.8l-11.5-6.6v-4z" class="st22"/>
        <path d="M396.5 491l-16.5 9.7-11.5-6.7 16.5-9.6z" class="st23"/>
      </g>
    </g>
    <g class="house">
      <g class="st1">
        <path d="M421.6 559.8v3.8l-16.5 9.6v-3.8z" class="st21"/>
        <path d="M405 569.4v3.8l-11.4-6.6v-4z" class="st22"/>
        <path d="M421.6 559.8l-16.5 9.6-11-6.7 16-9.7z" class="st23"/>
      </g>
      <g class="st1">
        <path d="M421.6 509v51.3L405 570l.2-51.5z" class="st10"/>
        <path d="M405.2 518.5V570l-11.6-6.8V512z" class="st24"/>
        <path d="M421.6 509l-16.4 9.5-11.6-6.6 16.4-10z" class="st23"/>
      </g>
      <g class="st1">
        <path d="M421.6 505.6v3.8L405 519v-3.8z" class="st21"/>
        <path d="M405 515.2v3.8l-11.4-6.6v-4z" class="st22"/>
        <path d="M421.6 505.6l-16.5 9.6-11-6.7 16-9.5z" class="st23"/>
      </g>
    </g>
    <g class="house">
      <g class="st1">
        <path d="M445.4 573.5v4L429 587v-4z" class="st21"/>
        <path d="M429 583v4l-11.6-6.7v-4z" class="st22"/>
        <path d="M445.4 573.5L429 583l-11.6-6.6 16.5-9.6z" class="st23"/>
      </g>
      <g class="st1">
        <path d="M445.4 522.7V574l-16.5 9.6v-51.4z" class="st10"/>
        <path d="M429 532.2v51.4l-11.6-6.7v-52z" class="st24"/>
        <path d="M445.4 522.7l-16.5 9.5-12-6.6 17-9.6z" class="st23"/>
      </g>
      <g class="st1">
        <path d="M445.4 519.3v4l-16.5 9.4V529z" class="st21"/>
        <path d="M429 529v3.7l-11.6-6.6v-3z" class="st22"/>
        <path d="M445.4 519.3L429 529l-11.6-6.8 16.5-9.5z" class="st23"/>
      </g>
    </g>
    <g class="house">
      <g class="st1">
        <path d="M473 589.5v4l-16.4 9.5v-4z" class="st21"/>
        <path d="M456.6 599v4l-11.5-6.7v-4z" class="st22"/>
        <path d="M473 589.5l-16.4 9.6-11.6-6 17-9z" class="st23"/>
      </g>
      <g class="st1">
        <path d="M473 538.7V590l-16.4 9.6v-51.4z" class="st10"/>
        <path d="M456.7 548.2v51.4L445 593v-51.4z" class="st24"/>
        <path d="M473 538.7l-16.3 9.5-11.6-6.6 17-9.6z" class="st23"/>
      </g>
      <g class="st1">
        <path d="M473 535.3v4l-16.4 9.5v-4z" class="st21"/>
        <path d="M456.6 545v3.8L445 542v-3.8z" class="st22"/>
        <path d="M473 535.3l-16.4 9.6-11.6-7 16.6-10z" class="st23"/>
      </g>
    </g>
    <g class="tree">
      <path d="M485.7 565.6v18.7l6.6-3.8z" class="st20"/>
      <path d="M485.7 565.6v18.7l-6.7-3.8z" class="st12"/>
    </g>
    <g class="tree">
      <path d="M220.2 494v18.7l6.6-4z" class="st20"/>
      <path d="M220.2 494v18.7l-6.7-4z" class="st12"/>
    </g>
    <g class="tree">
      <path d="M145 500v27.6l10-5.7z" class="st20"/>
      <path d="M145 500v27.6l-9.7-5.7z" class="st12"/>
    </g>
    <g class="house">
      <g class="st1">
        <path d="M511 191.6l.7 177.2-49.2 28.6-1-177.2z" class="st21"/>
        <path d="M461.6 220.2l1 177.2-49.7-28.6-1-177.2z" class="st22"/>
        <path d="M511 191.6l-49.4 28.6-49.5-28.6 50-28.6z" class="st23"/>
      </g>
      <g class="st1">
        <path d="M484.5 181.8v12.7l-23 13.4v-13z" class="st10"/>
        <path d="M461.5 195v13l-23-13.5v-12.7z" class="st25"/>
        <path d="M484.5 181.8l-23 13.3-23-13 23-13z" class="st26"/>
      </g>
      <g class="st1">
        <path d="M415 215.7l.8 165.4 25.2 15-1-165z" class="st22"/>
        <path d="M440 230.4l1 165.4 9.4-5.4-1-165.4z" class="st21"/>
        <path d="M415 215.7l25 14.7 9.5-5.4-25.2-14.7z" class="st23"/>
      </g>
      <g class="st1">
        <path d="M470.5 151.6v30.7l-9 5.2V157z" class="st27"/>
        <path d="M461.5 157v30.5l-9-5.2v-30.7z" class="st28"/>
        <path d="M470.5 151.6l-9 5.3-9-6 9-5z" class="st23"/>
      </g>
      <g class="st1">
        <path d="M475 146l-.2 7.5-13.3 7.8V154z" class="st10"/>
        <path d="M461.5 154v7.3l-13.5-7.8V146z" class="st25"/>
        <path d="M475 146l-13.5 8-13.4-8 14-7.6z" class="st26"/>
      </g>
      <g class="st1">
        <path d="M467.2 109.7v36.6l-5.7 3.3V113z" class="st27"/>
        <path d="M461.5 113v36.6l-5.8-3.3v-36.6z" class="st28"/>
        <path d="M467.2 109.7l-5.7 3.3-5.8-3.3 5.7-3.3z" class="st27"/>
      </g>
      <g class="st1">
        <path d="M512.7 367.2v8.2L477.2 396v-8.2z" class="st21"/>
        <path d="M477.3 387.8v8l-6.2-3.4v-8.2z" class="st22"/>
        <path d="M512.7 367.2l-35.4 20.6-6.2-3.6 36-20.6z" class="st23"/>
      </g>
    </g>
    <g class="house">
      <g class="st1">
        <path d="M209.8 414v90.4l-19 11V425z" class="st21"/>
        <path d="M191 425v90.4l-19-11V414z" class="st22"/>
        <path d="M209.8 414l-19 11-19-11 19-11z" class="st23"/>
      </g>
      <g class="st1">
        <path d="M181.2 478.4v31l-13 7.6.2-31z" class="st21"/>
        <path d="M168.4 486v31l-9.2-5.3v-31z" class="st22"/>
        <path d="M181.2 478.4l-12.8 7.5-9.2-6 12.8-7z" class="st23"/>
      </g>
      <g class="st1">
        <path d="M179.4 408.2v6.3l11.5 6.7V415z" class="st10"/>
        <path d="M191 415v6.2l11.5-6.7v-6.3z" class="st25"/>
        <path d="M179.4 408.2L191 415l11.5-6.8-11.6-6.7z" class="st26"/>
      </g>
      <g class="st1">
        <path d="M188 372v36.4l3 1.6v-36.2z" class="st27"/>
        <path d="M191 373.8V410l2.8-1.6V372z" class="st28"/>
        <path d="M188 372l3 1.8 2.8-1.7-3-1z" class="st27"/>
      </g>
      <g class="st1">
        <path d="M201 507.3v9.7l-16.2 9.5v-9.7z" class="st21"/>
        <path d="M184.8 516.8v9.7l-16.5-9.5v-9.8z" class="st22"/>
        <path d="M201 507.3l-16.2 9.5-16.4-9.5 16.3-9.5z" class="st23"/>
      </g>
      <g class="st1">
        <path d="M190.2 514.6v14.2l1.5.8v-14.2z" class="st22"/>
        <path d="M191.7 515.4v14.2l1.4-.8v-14.2z" class="st21"/>
        <path d="M190.2 514.6l1.5.8 1.4-.8-1-1z" class="st27"/>
      </g>
      <g class="st1">
        <path d="M195 511.8V526l1.4 1v-14.3z" class="st22"/>
        <path d="M196.4 512.7V527l1.5-1v-14.2z" class="st21"/>
        <path d="M195 511.8l1.4 1 1.5-1-2-.8z" class="st27"/>
      </g>
      <g class="st1">
        <path d="M198.4 511.4v4.6l-7.4 4.4v-4.7z" class="st21"/>
        <path d="M191 515.7v4.7l-10.6-6.2v-4.6z" class="st22"/>
        <path d="M198.4 511.4l-7.4 4.3-10.6-6 7.4-4.4z" class="st23"/>
      </g>
    </g>
    <g class="house">
      <g class="st1">
        <path d="M389.3 396.7v10l-42.7 24.7v-10z" class="st21"/>
        <path d="M346.7 421.5v10L317 414.3v-10z" class="st22"/>
        <path d="M389.3 396.7l-42.6 24.8-29.8-17.2 42-24.8z" class="st23"/>
      </g>
      <g class="st1">
        <path d="M380 299.6v99.2l-31.7 18.4v-99z" class="st10"/>
        <path d="M348.3 318v99.2L326 404.4v-99z" class="st24"/>
        <path d="M380 299.6L348.4 318 326 305.4l32-18.5z" class="st23"/>
      </g>
      <g class="st1">
        <path d="M380 293v7.6L348.4 319v-7.4z" class="st21"/>
        <path d="M348.3 311.6v7.5L326 307v-8z" class="st22"/>
        <path d="M380 293l-31.7 18.6-22.2-12.8 32-18.5z" class="st23"/>
      </g>
    </g>
    <g class="house">
      <g class="st1">
        <path d="M328.5 517.8l-.3 74.4 20.7 12v-74.4z" class="st21"/>
        <path d="M349.2 529.8l-.3 74.5 20-12v-74.5z" class="st22"/>
        <path d="M328.5 517.8l20.7 12 21-12-20.8-12z" class="st23"/>
      </g>
      <g class="st1">
        <path d="M339.6 513.7v5.3l9.7 5.6v-5.3z" class="st33"/>
        <path d="M349.3 519.3v5.3l9.7-5.6v-5.3z" class="st32"/>
        <path d="M339.6 513.7l9.7 5.6 9.7-5.6-9.7-5.7z" class="st34"/>
      </g>
      <g class="st1">
        <path d="M369 528l-.5 69.4-10.6 6.2V534z" class="st22"/>
        <path d="M358.3 534l-.4 69.6-4-2.3v-69.5z" class="st21"/>
        <path d="M369 528l-10.7 6-4-2.2 10.6-6.2z" class="st23"/>
      </g>
      <g class="st1">
        <path d="M345.5 501v13l3.8 2v-12.8z" class="st27"/>
        <path d="M349.3 503.2v13l3.8-2.3v-13z" class="st28"/>
        <path d="M345.5 501l3.8 2.2 3.8-2.2-3-2.2z" class="st23"/>
      </g>
      <g class="st1">
        <path d="M343.7 498.7v3l5.6 3.4v-3z" class="st33"/>
        <path d="M349.3 502v3l5.6-3.2v-3z" class="st32"/>
        <path d="M343.7 498.7l5.6 3.2 5.6-4-6-4z" class="st34"/>
      </g>
      <g class="st1">
        <path d="M347 483.4v15.3l2.3 1.4v-15z" class="st27"/>
        <path d="M349.3 484.8V500l2.4-1.3v-15.3z" class="st28"/>
        <path d="M347 483.4l2.3 1.4 2.4-1.4-2.4-1.4z" class="st27"/>
      </g>
    </g>
    <g class="house">
      <g class="st1">
        <path d="M402 418v7.6l-32.6 19V437z" class="st21"/>
        <path d="M369.4 437v7.6l-23-13.2.2-7.7z" class="st22"/>
        <path d="M402 418l-32.6 19-22.8-13.3 32.7-19z" class="st23"/>
      </g>
      <g class="st1">
        <path d="M396.3 395.2v24l-26 15v-24z" class="st21"/>
        <path d="M370.4 410.2v24l-18-10.3v-25z" class="st22"/>
        <path d="M396.3 395.2l-26 15-18-10.4 26-15z" class="st23"/>
      </g>
      <g class="st1">
        <path d="M385.7 410.2v2.2L378 417v-2.3z" class="st21"/>
        <path d="M378 414.7v2.2l-7.6-5v-2z" class="st22"/>
        <path d="M385.7 410.2l-7.6 4.5-7-4.5 8-4.4z" class="st23"/>
      </g>
    </g>
    <g class="house">
      <path d="M408 610.7L382 626l-26.5-15.3 26.2-15.2z" class="st1 st12"/>
      <g class="st1">
        <path d="M400.2 572.2v38.6l-18.4 10.7V583z" class="st21"/>
        <path d="M381.8 583v38.5l-18.4-10.7v-38.6z" class="st22"/>
        <path d="M400.2 572.2L381.8 583l-18.4-11 18.3-10.6z" class="st23"/>
      </g>
      <g class="st1">
        <path d="M405.2 572.6v4l-23.4 13.7V586z" class="st29"/>
        <path d="M381.8 586v4.3l-23.5-13.6v-4z" class="st22"/>
        <path d="M405.2 572.6L381.8 586l-23.5-13.4 23.4-13.6z" class="st23"/>
      </g>
      <g class="st1">
        <path d="M405.2 585.3v4.2L381.8 603v-4z" class="st29"/>
        <path d="M381.8 599v4l-23.5-13.5v-4.2z" class="st22"/>
      </g>
      <path d="M363.4 585.3v-3l-2.6 1.5-2.5 1.5 23.5 13.6v-3z" class="st23"/>
      <path d="M402.7 583.8l-2.5-1.5v3L381.8 596v3l23.4-13.7z" class="st30"/>
      <g class="st1">
        <path d="M405.2 595.7v4l-23.4 13.7v-4.2z" class="st29"/>
        <path d="M381.8 609.2v4.2l-23.5-13.6v-4z" class="st22"/>
      </g>
      <path d="M363.4 595.6v-3l-2.6 1.6-2.5 1.5 23.5 13.5v-3z" class="st23"/>
      <path d="M402.7 594.2l-2.5-1.5v3l-18.4 10.6v3l23.4-13.6z" class="st30"/>
    </g>
    <g class="house">
      <path d="M343.2 612.4L317 627.6l-26.3-15.2 26-15.2z" class="st1 st12"/>
      <g class="st1">
        <path d="M335.3 574v38.5L317 623.2v-38.6z" class="st32"/>
        <path d="M317 584.6v38.6l-18.5-10.7V574z" class="st33"/>
        <path d="M335.3 574L317 584.6 298.5 574l18.4-10.7z" class="st23"/>
      </g>
      <g class="st1">
        <path d="M340.3 574.3v4.2L317 592v-4z" class="st29"/>
        <path d="M317 588v4l-23.5-13.5v-4.2z" class="st22"/>
        <path d="M340.3 574.3L317 588l-23.5-13.7 23.3-13.6z" class="st23"/>
      </g>
      <g class="st1">
        <path d="M340.3 587v4.2L317 604.8v-4.2z" class="st29"/>
        <path d="M317 600.6v4.2l-23.5-13.6V587z" class="st22"/>
      </g>
      <path d="M298.5 587v-3l-2.5 1.5-2.5 1.5 23.5 13.6v-3z" class="st23"/>
      <path d="M338 585.5l-2.7-1.5v3L317 597.7v3l23.3-13.7z" class="st30"/>
      <g class="st1">
        <path d="M340.3 597.4v4.2L317 615v-4z" class="st29"/>
        <path d="M317 611v4l-23.5-13.4v-4.2z" class="st22"/>
      </g>
      <path d="M298.5 597.4v-3L296 596l-2.5 1.4L317 611v-3z" class="st23"/>
      <path d="M338 596l-2.7-1.6v3L317 608v3l23.3-13.6z" class="st30"/>
    </g>
    <g class="tree">
      <path d="M350.5 605.8v18.7l6.7-4z" class="st20"/>
      <path d="M350.5 605.8v18.7l-6.7-4z" class="st12"/>
    </g>
    <g class="tree">
      <path d="M285 483.2V502l6.6-4z" class="st20"/>
      <path d="M285 483.2V502l-6.7-4z" class="st12"/>
    </g>
    <g class="tree">
      <path d="M202.5 544v19l6.6-3.8z" class="st20"/>
      <path d="M202.5 544v19l-6.7-3.8z" class="st12"/>
    </g>
    <g class="house">
      <g class="st1">
        <path d="M312.2 553.8v7.7l-32.8 19v-7.7z" class="st21"/>
        <path d="M279.5 572.8v7.7l-23-13.2v-7.7z" class="st22"/>
        <path d="M312.2 553.8l-32.7 19-23-13.2 32.8-19z" class="st23"/>
      </g>
      <g class="st1">
        <path d="M306.4 531v24l-26 15.2v-24z" class="st21"/>
        <path d="M280.5 546v24.2l-18-10.5v-24z" class="st22"/>
        <path d="M306.4 531l-26 15-18-10.3 26-15z" class="st23"/>
      </g>
      <g class="st1">
        <path d="M299.3 526.4v4.5l-7.6 4v-5z" class="st21"/>
        <path d="M291.7 530.8v4.5L284 531v-4.6z" class="st22"/>
        <path d="M299.3 526.4l-7.6 4.4-7.7-4.4 7.6-4.4z" class="st23"/>
      </g>
    </g>
    <g class="tree">
      <path d="M548.3 519v27.6l9.8-5.7z" class="st20"/>
      <path d="M548.3 519v27.6l-10-5.7z" class="st12"/>
    </g>
    <g class="tree">
      <path d="M417.4 600.6v27.7l9.8-5.7z" class="st20"/>
      <path d="M417.4 600.6v27.7l-10-5.7z" class="st12"/>
    </g>
    <g class="event">
      <path d="M432 116c-.4 0-1 0-1.4-.3-13.2-4.7-22-17.2-22-31.2s8.8-26.5 22-31.2c2.3-.8 5 .4 5.7 2.7.8 2.3-.4 5-2.7 5.7-9.6 3.4-16 12.5-16 22.7 0 10 6.4 19.3 16 22.7 2.3 1 3.6 4 2.7 6-.6 2-2.4 3-4.2 3z" class="st35"/>
      <path d="M442.8 105.6c-.5 0-1 0-1.5-.3-8.7-3-14.6-11.4-14.6-20.7 0-9.3 6-17.6 14.6-20.7 2.3-1 5 0 5.7 2 .8 2-.4 5-2.7 5-5.2 2-8.6 6-8.6 12 0 5 3.5 10 8.6 12 2.3 1 3.6 3 2.7 6-.6 2-2.4 3-4.2 3z" class="st35"/>
      <path d="M426.8 134c-.5 0-1-.2-1.5-.4-20.7-7.4-34.6-27-34.6-49s14-41.6 34.6-49c2.3-.8 5 .4 5.7 2.7.8 2.3-.4 5-2.7 5.7-17 6-28.6 22.4-28.6 40.5s11.5 34.4 28.6 40.5c2.3.8 3.6 3.4 2.7 5.7-.6 2-2.3 3.2-4.2 3.2z" class="st35"/>
      <path d="M490.8 116c-1.8 0-3.6-1-4.2-3-.8-2.3.4-5 2.7-5.7 9.6-3.4 16-12.5 16-22.7 0-10-6.4-19.3-16-22.7-2.3-1-3.6-4-2.7-6 .8-3 3.4-4 5.7-3 13.2 4 22 17 22 31s-8.8 26-22 31h-1.5z" class="st35"/>
      <path d="M480 105.6c-1.7 0-3.5-1-4-3-1-2.3.3-5 2.6-5.7 5.2-2 8.6-7 8.6-13s-3.5-10-8.6-12c-2.3-1-3.6-4-2.7-6 0-3 3-4 5-3 9 3 15 11 15 21s-6 17-15 20h-1z" class="st35"/>
      <path d="M496 134c-1.7 0-3.5-1.2-4-3-1-2.4.3-5 2.6-5.8 17-6 28.6-22.4 28.6-40.5s-11.5-34.4-28.6-40.5c-2.3-.8-3.6-3.4-2.7-5.7 0-2.3 3-3.6 5-2.7 20 7.4 34 27 34 49s-14 41.6-35 49h-1z" class="st35"/>
      <circle cx="460.9" cy="84.6" r="10.2" class="st35"/>
    </g>
    <g class="event st1">
      <path d="M135.4 452.4c-3 1.8-5.6 6-5.6 9.6s2.5 5 5.6 3.2c3-1.8 5.6-6 5.6-9.6 0-3.5-2.6-5-5.6-3.2z" class="st35"/>
      <path d="M135.3 436.6c-5 3-9.6 9.2-11.2 15.6v1c0 1.2 1 2 2 1.7 1 0 1-1 1-1l3-3c1-4 4-8 7-9 3-2 6-1 7 1 1 1 2 1 3 0l1-1c2-2 2-3 2-5-1-4-6-5-11-2z" class="st35"/>
      <path d="M135.3 425.3c-7.6 4.4-14.4 14-17 23.6v1c0 1 .6 1 1.6 1v-1c1-1 2-2 2-3 1-7 6-14 12-17 5-4 10-2 12 2 0 1 1 1 2 0v-1c1-2 2-4 1-5-3-7-10-8-17-4z" class="st35"/>
      <path d="M135.2 414c-12 7-22.7 22-26.7 37.2v1c0 1.2.5 2 1.5 1.7.3 0 .6-1 .8-1 1-1 2-2 2.3-3 4-13 13-25 22-31 10-6 19-4 23 5 1 1 2 1 3 0l1-1c2-2 2-3 2-5-4-11-14-13-26-6z" class="st35"/>
    </g>
    <g class="line">
      <path d="M296 215c.6-.2 1 0 1 .7s-.5 1.5-1 1.8c-.6.3-1 0-1-.6s.5-2 1-2z" class="st27"/>
      <path d="M300.2 212.7c.6-.3 1 0 1 .6s-.5 1.5-1 1.8c-.6 1-1 1-1 0s.5-1 1-2z" class="st27"/>
      <path d="M304.4 210.2c.6-.3 1 0 1 .6s-.5 1.5-1 1.8c-.6.3-1 0-1-.6s.5-1.4 1-1.8z" class="st27"/>
      <path d="M308.6 207.8c.6-.3 1 0 1 .6s-.5 1.5-1 1.8c-.6.3-1 0-1-.6s.5-1.4 1-1.8z" class="st27"/>
      <path d="M312.8 205.4c.6-.3 1 0 1 .6s-.5 1.5-1 1.8c-.6.3-1 0-1-.6s.5-1.5 1-1.8z" class="st27"/>
      <path d="M317 203c.6-.3 1 0 1 .6s-.5 1.5-1 1.8c-.6.3-1 0-1-.6s.5-1.5 1-1.8z" class="st27"/>
      <path d="M321.3 200.5c.6-.3 1 0 1 .6s-.5 2-1 2c-.6 1-1 0-1 0l1-2z" class="st27"/>
      <path d="M325.5 198c.6-.2 1 0 1 .7s-.5 1.5-1 1.8c-.6.3-1 0-1-.6 0-1 .4-2 1-2z" class="st27"/>
      <path d="M329.7 195.7c.6-.3 1 0 1 .6s-.5 1.5-1 1.8c-.6 1-1 1-1 0s.4-1 1-2z" class="st27"/>
      <path d="M334 193.3c.5-.3 1 0 1 .6s-.6 1-1 1c-.7 0-1 0-1-1-.2-1 .3-2 1-2z" class="st27"/>
      <path d="M338 190.8c.7-.3 1 0 1 .6s-.4 1.5-1 1.8c-.5.3-1 0-1-.6s.5-1.4 1-1.8z" class="st27"/>
      <path d="M342.3 188.4c.6-.3 1 0 1 .6s-.5 1.5-1 1.8c-.6.3-1 0-1-.6 0-.7.4-1.5 1-1.8z" class="st27"/>
      <path d="M346.5 186c.6-.3 1 0 1 .6s-.5 1.5-1 1.8c-.6.3-1 0-1-.6 0-.7.4-1.5 1-1.8z" class="st27"/>
      <path d="M350.7 183.6c.6-.3 1 0 1 .6s-.5 1.5-1 1.8c-.6.3-1 0-1-.6 0-.7.4-1.5 1-1.8z" class="st27"/>
      <path d="M355 181c.5-.2 1 0 1 .7s-.6 1.5-1 1.8c-.7.3-1 0-1-.6-.2-1 .3-2 1-2z" class="st27"/>
      <path d="M359 178.7c.7-.3 1 0 1 .6s-.4 1.5-1 1.8c-.5 1-1 1-1 0s.5-1 1-2z" class="st27"/>
      <path d="M363.3 176.3c.6-.3 1 0 1 .6s-.5 1-1 1c-.6 0-1 0-1-1s.4-2 1-2z" class="st27"/>
      <path d="M367.5 174c.6-.4 1-.2 1 .5s-.5 1.5-1 1.8c-.6.3-1 0-1-.6 0-.7.4-1.5 1-1.8z" class="st27"/>
      <path d="M371.7 171.4c.6-.3 1 0 1 .6s-.5 1.5-1 1.8c-.6.3-1 0-1-.6s.4-1.4 1-1.8z" class="st27"/>
      <path d="M376 169c.5-.3 1 0 1 .6s-.6 1.5-1 1.8c-.7.3-1 0-1-.6-.2-.7.3-1.5 1-1.8z" class="st27"/>
      <path d="M380 166.6c.7-.3 1 0 1 .6s-.4 1.5-1 1.8c-.5.3-1 0-1-.6s.5-1.5 1-1.8z" class="st27"/>
      <path d="M384.3 164c.6-.2 1 0 1 .7s-.5 1.5-1 1.8c-.6.3-1 0-1-.6 0-1 .4-2 1-2z" class="st27"/>
      <path d="M388.5 161.7c.6-.3 1 0 1 .6s-.5 1.5-1 1.8c-.6 1-1 1-1 0l1-2z" class="st27"/>
      <path d="M392.7 159.3c.6-.3 1 0 1 .6s-.5 1-1 1c-.6 0-1 0-1-1s.4-2 1-2z" class="st27"/>
      <path d="M397 157c.5-.4 1-.2 1 .5s-.6 1.5-1 1.8c-.7.3-1 0-1-.6s.3-1.5 1-1.8z" class="st27"/>
      <path d="M401 154.4c.7-.3 1 0 1 .6s-.4 1.5-1 1.8c-.5.3-1 0-1-.6s.5-1.4 1-1.8z" class="st27"/>
      <path d="M405.3 152c.6-.3 1 0 1 .6s-.5 1.5-1 1.8c-.6.3-1 0-1-.6s.4-1.5 1-1.8z" class="st27"/>
      <path d="M409.5 149.6c.6-.3 1 0 1 .6s-.5 1.5-1 1.8c-.6.3-1 0-1-.6s.4-1.5 1-1.8z" class="st27"/>
      <path d="M413.7 147.2c.6-.3 1 0 1 .6s-.5 1.5-1 1.8c-.6.3-1 0-1-.6s.4-1.5 1-1.8z" class="st27"/>
      <path d="M418 144.7c.5-.3 1 0 1 .6s-.6 1.5-1 1.8c-.7 1-1 1-1 0 0 0 .3-1 1-2z" class="st27"/>
      <path d="M422 142.3c.7-.3 1 0 1 .6s-.4 1-1 1c-.5 0-1 0-1-1s.5-2 1-2z" class="st27"/>
      <path d="M426.3 140c.6-.4 1-.2 1 .5s-.5 1.5-1 1.8c-.6.3-1 0-1-.6s.4-1.5 1-1.8z" class="st27"/>
      <path d="M430.5 137.5c.6-.3 1 0 1 .6s-.5 2-1 2c-.6 1-1 0-1 0l1-2z" class="st27"/>
      <path d="M434.7 135c.6-.3 1 0 1 .6s-.5 1.5-1 1.8c-.6.3-1 0-1-.6s.5-1.4 1-1.8z" class="st27"/>
      <path d="M439 132.6c.5-.3 1 0 1 .6s-.6 1.5-1 1.8c-.7.3-1 0-1-.6s.4-1.5 1-1.8z" class="st27"/>
      <path d="M443 130.2c.7-.3 1 0 1 .6s-.4 1.5-1 1.8c-.5.3-1 0-1-.6s.6-1.5 1-1.8z" class="st27"/>
      <path d="M447.3 127.7c.6-.3 1 0 1 .6s-.5 1.5-1 1.8c-.6 1-1 1-1 0l1-2z" class="st27"/>
    </g>
    <g class="line">
      <path d="M570.4 181.4c-.6-.3-1 0-1 .6s.5 1.5 1 1.8c.6.3 1 0 1-.6 0-.7-.4-1.5-1-1.8z" class="st27"/>
      <path d="M566.2 179c-.6-.4-1-.2-1 .5s.5 1.5 1 1.8c.6.3 1 0 1-.6s-.4-1.4-1-1.8z" class="st27"/>
      <path d="M562 176.5c-.6-.3-1 0-1 .6s.5 2 1 2c.6 1 1 0 1 0l-1-2z" class="st27"/>
      <path d="M557.8 174c-.6-.2-1 0-1 .7s.5 1.5 1 1.8c.6.3 1 0 1-.6 0-1-.4-2-1-2z" class="st27"/>
      <path d="M553.6 171.7c-.6-.3-1 0-1 .6s.5 1.5 1 1.8c.6 1 1 1 1 0s-.4-1-1-2z" class="st27"/>
      <path d="M549.4 169.2c-.6-.3-1 0-1 .6s.5 1.5 1 1.8c.6.3 1 0 1-.6s-.4-1.4-1-1.8z" class="st27"/>
      <path d="M545.2 166.8c-.6-.3-1 0-1 .6s.5 1.5 1 1.8c.6.3 1 0 1-.6 0-.7-.4-1.5-1-1.8z" class="st27"/>
      <path d="M541 164.4c-.6-.3-1 0-1 .6s.5 1.5 1 1.8c.6.3 1 0 1-.6 0-.7-.4-1.5-1-1.8z" class="st27"/>
      <path d="M536.8 162c-.6-.3-1 0-1 .6s.5 1.5 1 1.8c.6.3 1 0 1-.6s-.4-1.5-1-1.8z" class="st27"/>
      <path d="M532.6 159.5c-.6-.3-1 0-1 .6s.5 2 1 2c.6 1 1 0 1 0l-1-2z" class="st27"/>
      <path d="M528.4 157c-.6-.2-1 0-1 .7s.5 1.5 1 1.8c.6.3 1 0 1-.6 0-1-.4-2-1-2z" class="st27"/>
      <path d="M524.2 154.7c-.6-.3-1 0-1 .6s.5 1.5 1 1.8c.6 1 1 1 1 0s-.4-1-1-2z" class="st27"/>
      <path d="M520 152.3c-.6-.3-1 0-1 .6s.5 1 1 1c.6 0 1 0 1-1s-.4-2-1-2z" class="st27"/>
      <path d="M515.8 149.8c-.6-.3-1 0-1 .6s.5 1.5 1 1.8c.6.3 1 0 1-.6s-.4-1.4-1-1.8z" class="st27"/>
      <path d="M511.6 147.4c-.6-.3-1 0-1 .6s.5 1.5 1 1.8c.6.3 1 0 1-.6s-.4-1.5-1-1.8z" class="st27"/>
      <path d="M507.4 145c-.6-.3-1 0-1 .6s.5 1.5 1 1.8c.6.3 1 0 1-.6s-.4-1.5-1-1.8z" class="st27"/>
      <path d="M503.2 142.5c-.6-.3-1 0-1 .6s.5 2 1 2c.6 1 1 0 1 0l-1-2z" class="st27"/>
      <path d="M499 140c-.6-.2-1 0-1 .7s.5 1.5 1 1.8c.6.3 1 0 1-.6 0-1-.4-2-1-2z" class="st27"/>
      <path d="M494.8 137.7c-.6-.3-1 0-1 .6s.5 1.5 1 1.8c.6 1 1 1 1 0s-.4-1-1-2z" class="st27"/>
      <path d="M490.6 135.3c-.6-.3-1 0-1 .6s.5 1 1 1c.6 0 1 0 1-1s-.4-2-1-2z" class="st27"/>
      <path d="M486.4 132.8c-.6-.3-1 0-1 .6s.5 1.5 1 1.8c.6.3 1 0 1-.6s-.4-1.4-1-1.8z" class="st27"/>
      <path d="M482.2 130.4c-.6-.3-1 0-1 .6s.5 1.5 1 1.8c.6.3 1 0 1-.6s-.4-1.5-1-1.8z" class="st27"/>
      <path d="M478 128c-.6-.3-1 0-1 .6s.5 1.5 1 1.8c.6.3 1 0 1-.6s-.4-1.5-1-1.8z" class="st27"/>
      <path d="M473.8 125.6c-.6-.3-1 0-1 .6s.5 1.5 1 1.8c.6.3 1 0 1-.6s-.4-1.5-1-1.8z" class="st27"/>
    </g>
    <g class="line">
      <path d="M191 305.2c.6-.3 1 0 1 .6s-.5 1.5-1 1.8c-.6.3-1 0-1-.6s.5-1.5 1-1.8z" class="st27"/>
      <path d="M191 310c.7-.3 1 0 1 .6s-.4 1.5-1 1.8c-.5.3-1 0-1-.6s.5-1.4 1-1.8z" class="st27"/>
      <path d="M191 315c.7-.4 1-.2 1 .5s-.4 1.5-1 1.8c-.5.3-1 0-1-.6 0-.7.5-1.5 1-1.8z" class="st27"/>
      <path d="M191 319.7c.7-.3 1 0 1 .6s-.4 1.5-1 1.8c-.5 1-1 1-1 0s.5-1 1-2z" class="st27"/>
      <path d="M191 324.5c.7-.3 1 0 1 .6s-.4 2-1 2c-.5 1-1 0-1 0l1-2z" class="st27"/>
      <path d="M191 329.3c.7-.3 1 0 1 .6s-.4 1-1 1c-.5 0-1 0-1-1s.5-2 1-2z" class="st27"/>
      <path d="M191 334.2c.7-.3 1 0 1 .6s-.4 1.5-1 1.8c-.5.3-1 0-1-.6s.6-1.5 1-1.8z" class="st27"/>
      <path d="M191 339c.7-.3 1 0 1 .6s-.4 1.5-1 1.8c-.5.3-1 0-1-.6s.6-1.5 1-1.8z" class="st27"/>
      <path d="M191.2 343.8c.6-.3 1 0 1 .6s-.5 1.5-1 1.8c-.6.3-1 0-1-.6s.4-1.4 1-1.8z" class="st27"/>
      <path d="M191.2 348.7c.6-.3 1 0 1 .6s-.5 1.5-1 1.8c-.6 1-1 1-1 0s.4-1 1-2z" class="st27"/>
      <path d="M191.2 353.5c.6-.3 1 0 1 .6s-.5 2-1 2c-.6 1-1 0-1 0l1-2z" class="st27"/>
      <path d="M191.2 358.3c.6-.3 1 0 1 .6s-.5 1-1 1c-.6 0-1 0-1-1s.4-2 1-2z" class="st27"/>
      <path d="M191.2 363.2c.6-.3 1 0 1 .6s-.5 1.5-1 1.8c-.6.3-1 0-1-.6s.4-1.5 1-1.8z" class="st27"/>
    </g>
    <g class="line">
      <path d="M497.5 420.2c.6-.3 1 0 1 .6s-.5 1.5-1 1.8c-.6.3-1 0-1-.6s.5-1.4 1-1.8z" class="st27"/>
      <path d="M497.6 425c.6-.2 1 0 1 .7s-.5 1.5-1 1.8c-.6.3-1 0-1-.6 0-1 .4-2 1-2z" class="st27"/>
      <path d="M497.6 430c.6-.4 1-.2 1 .5s-.5 1.5-1 1.8c-.6.3-1 0-1-.6s.4-1.5 1-1.8z" class="st27"/>
      <path d="M497.6 434.7c.6-.3 1 0 1 .6s-.5 1.5-1 1.8c-.6 1-1 1-1 0s.4-1 1-2z" class="st27"/>
      <path d="M497.6 439.6c.6-.3 1 0 1 .6s-.5 1.5-1 1.8c-.6.3-1 0-1-.6s.4-1.5 1-1.8z" class="st27"/>
      <path d="M497.6 444.4c.6-.3 1 0 1 .6s-.5 1.5-1 1.8c-.6.3-1 0-1-.6s.4-1.5 1-1.8z" class="st27"/>
      <path d="M497.6 449.2c.6-.3 1 0 1 .6s-.5 1.5-1 1.8c-.6.3-1 0-1-.6s.4-1.4 1-1.8z" class="st27"/>
    </g>
    <g class="line">
      <path d="M661.5 337.6c.6-.3 1 0 1 .6s-.5 1.5-1 1.8c-.6.3-1 0-1-.6 0-.7.4-1.5 1-1.8z" class="st27"/>
      <path d="M661.5 342.4c.6-.3 1 0 1 .6s-.5 1.5-1 1.8c-.6.3-1 0-1-.6s.4-1.4 1-1.8z" class="st27"/>
      <path d="M661.5 347.3c.6-.3 1 0 1 .6s-.5 1-1 1c-.6 0-1 0-1-1s.4-2 1-2z" class="st27"/>
      <path d="M661.5 352c.6-.2 1 0 1 .7s-.5 1.5-1 1.8c-.6.3-1 0-1-.6s.4-2 1-2z" class="st27"/>
      <path d="M661.5 357c.6-.4 1-.2 1 .5s-.5 1.5-1 1.8c-.6.3-1 0-1-.6s.4-1.4 1-1.8z" class="st27"/>
      <path d="M661.5 361.8c.6-.3 1 0 1 .6s-.5 1.5-1 1.8c-.6.3-1 0-1-.6s.5-1.5 1-1.8z" class="st27"/>
      <path d="M661.6 366.6c.6-.3 1 0 1 .6s-.5 1.5-1 1.8c-.6.3-1 0-1-.6 0-.7.4-1.5 1-1.8z" class="st27"/>
    </g>
    <g class="line">
      <path d="M597 225.5c.7-.3 1 0 1 .6s-.4 2-1 2c-.5 1-1 0-1 0l1-2z" class="st27"/>
      <path d="M597 230.3c.7-.3 1 0 1 .6s-.4 1-1 1c-.5 0-1 0-1-1s.5-2 1-2z" class="st27"/>
      <path d="M597 235c.7-.2 1 0 1 .7s-.4 1.5-1 1.8c-.5.3-1 0-1-.6 0-1 .5-2 1-2z" class="st27"/>
      <path d="M597 240c.7-.3 1 0 1 .6s-.4 1.5-1 1.8c-.5.3-1 0-1-.6s.6-1.5 1-1.8z" class="st27"/>
      <path d="M597 244.8c.7-.3 1 0 1 .6s-.4 1.5-1 1.8c-.5.3-1 0-1-.6s.6-1.5 1-1.8z" class="st27"/>
      <path d="M597.2 249.6c.6-.3 1 0 1 .6s-.5 1.5-1 1.8-1 0-1-.6c0-.7.4-1.5 1-1.8z" class="st27"/>
      <path d="M597.2 254.4c.6-.3 1 0 1 .6s-.5 1.5-1 1.8c-.6.3-1 0-1-.6s.4-1.4 1-1.8z" class="st27"/>
      <path d="M597.2 259.3c.6-.3 1 0 1 .6s-.5 1-1 1c-.6 0-1 0-1-1s.4-2 1-2z" class="st27"/>
      <path d="M597.2 264c.6-.2 1 0 1 .7s-.5 1.5-1 1.8c-.6.3-1 0-1-.6s.4-2 1-2z" class="st27"/>
      <path d="M597.2 269c.6-.4 1-.2 1 .5s-.5 1.5-1 1.8c-.6.3-1 0-1-.6s.4-1.4 1-1.8z" class="st27"/>
      <path d="M597.2 273.8c.6-.3 1 0 1 .6s-.5 1.5-1 1.8c-.6.3-1 0-1-.6s.4-1.5 1-1.8z" class="st27"/>
      <path d="M597.2 278.6c.6-.3 1 0 1 .6s-.5 1.5-1 1.8c-.6.3-1 0-1-.6s.5-1.5 1-1.8z" class="st27"/>
      <path d="M597.2 283.4c.6-.3 1 0 1 .6s-.5 1.5-1 1.8c-.6.3-1 0-1-.6s.5-1.5 1-1.8z" class="st27"/>
      <path d="M597.3 288.2c.6-.3 1 0 1 .6s-.5 1.5-1 1.8c-.6.3-1 0-1-.6s.4-1.4 1-1.8z" class="st27"/>
      <path d="M597.3 293c.6-.2 1 0 1 .7s-.5 1.5-1 1.8c-.6.3-1 0-1-.6 0-1 .4-2 1-2z" class="st27"/>
    </g>
    <g class="line">
      <path d="M272 229c.7-.4 1-.2 1 .5s-.4 1.5-1 1.8c-.5.3-1 0-1-.6s.5-1.4 1-1.8z" class="st27"/>
      <path d="M268 231.4c.5-.3 1 0 1 .6s-.6 1.5-1 1.8c-.7.3-1 0-1-.6-.2-.7.3-1.5 1-1.8z" class="st27"/>
      <path d="M263.7 233.8c.6-.3 1 0 1 .6s-.5 1.5-1 1.8c-.6.3-1 0-1-.6 0-.7.4-1.5 1-1.8z" class="st27"/>
      <path d="M259.5 236.2c.6-.3 1 0 1 .6s-.5 1.5-1 1.8c-.6.3-1 0-1-.6s.4-1.4 1-1.8z" class="st27"/>
      <path d="M255.3 238.6c.6-.3 1 0 1 .6s-.5 1.5-1 1.8c-.6.3-1 0-1-.6s.4-1.4 1-1.8z" class="st27"/>
      <path d="M251 241c.7-.2 1 0 1 .7s-.4 1.5-1 1.8c-.5.3-1 0-1-.6 0-1 .5-2 1-2z" class="st27"/>
      <path d="M247 243.5c.5-.3 1 0 1 .6s-.6 2-1 2c-.7 1-1 0-1 0-.2 0 .3-1 1-2z" class="st27"/>
      <path d="M242.7 246c.6-.4 1-.2 1 .5s-.5 1.5-1 1.8c-.6.3-1 0-1-.6s.4-1.4 1-1.8z" class="st27"/>
      <path d="M238.4 248.4c.6-.3 1 0 1 .6s-.5 1.5-1 1.8c-.6.3-1 0-1-.6s.5-1.5 1-1.8z" class="st27"/>
      <path d="M234.2 250.8c.6-.3 1 0 1 .6s-.5 1.5-1 1.8c-.6.3-1 0-1-.6s.5-1.5 1-1.8z" class="st27"/>
      <path d="M230 253.2c.6-.3 1 0 1 .6s-.5 1.5-1 1.8c-.6.3-1 0-1-.6s.5-1.5 1-1.8z" class="st27"/>
      <path d="M225.8 255.6c.6-.3 1 0 1 .6s-.5 1.5-1 1.8c-.6.3-1 0-1-.6s.5-1.4 1-1.8z" class="st27"/>
      <path d="M221.6 258c.6-.2 1 0 1 .7s-.5 1.5-1 1.8c-.6.3-1 0-1-.6s.5-2 1-2z" class="st27"/>
      <path d="M217.4 260.5c.6-.3 1 0 1 .6s-.5 2-1 2c-.6 1-1 0-1 0l1-2z" class="st27"/>
      <path d="M213.2 263c.6-.4 1-.2 1 .5s-.5 1.5-1 1.8c-.6.3-1 0-1-.6s.5-1.5 1-1.8z" class="st27"/>
    </g>
    <g class="line">
      <path d="M564.8 375.5c.6-.3 1 0 1 .6s-.5 2-1 2c-.6 1-1 0-1 0l1-2z" class="st28"/>
      <path d="M560.6 378c.6-.3 1 0 1 .6s-.5 1.5-1 1.8c-.6.3-1 0-1-.6s.4-1.5 1-1.8z" class="st28"/>
      <path d="M556.4 380.4c.6-.3 1 0 1 .6s-.5 1.5-1 1.8c-.6.3-1 0-1-.6s.4-1.5 1-1.8z" class="st28"/>
      <path d="M552.2 382.8c.6-.3 1 0 1 .6s-.5 1.5-1 1.8c-.6.3-1 0-1-.6s.4-1.4 1-1.8z" class="st28"/>
      <path d="M548 385.2c.6-.3 1 0 1 .6s-.5 1.5-1 1.8c-.6.3-1 0-1-.6s.4-1.4 1-1.8z" class="st28"/>
      <path d="M543.8 387.7c.6-.3 1 0 1 .6s-.5 1.5-1 1.8c-.6 1-1 1-1 0s.4-1 1-2z" class="st28"/>
      <path d="M539.6 390c.6-.2 1 0 1 .7s-.5 1.5-1 1.8c-.6.3-1 0-1-.6s.4-2 1-2z" class="st28"/>
      <path d="M535.4 392.5c.6-.3 1 0 1 .6s-.5 2-1 2c-.6 1-1 0-1 0l1-2z" class="st28"/>
      <path d="M531.2 395c.6-.3 1 0 1 .6s-.5 1.5-1 1.8c-.6.3-1 0-1-.6s.4-1.5 1-1.8z" class="st28"/>
      <path d="M527 397.4c.6-.3 1 0 1 .6s-.5 1.5-1 1.8c-.6.3-1 0-1-.6s.4-1.5 1-1.8z" class="st28"/>
      <path d="M522.8 399.8c.6-.3 1 0 1 .6s-.5 1.5-1 1.8c-.6.3-1 0-1-.6s.4-1.5 1-1.8z" class="st28"/>
      <path d="M518.6 402.2c.6-.3 1 0 1 .6s-.5 1.5-1 1.8c-.6.3-1 0-1-.6s.4-1.4 1-1.8z" class="st28"/>
      <path d="M514.4 404.7c.6-.3 1 0 1 .6s-.5 1.5-1 1.8c-.6 1-1 1-1 0s.4-1 1-2z" class="st28"/>
      <path d="M510.2 407c.6-.2 1 0 1 .7s-.5 1.5-1 1.8c-.6.3-1 0-1-.6 0-1 .4-2 1-2z" class="st28"/>
      <path d="M506 409.5c.6-.3 1 0 1 .6s-.5 2-1 2c-.6 1-1 0-1 0l1-2z" class="st28"/>
      <path d="M501.8 412c.6-.4 1-.2 1 .5s-.5 1.5-1 1.8c-.6.3-1 0-1-.6s.4-1.4 1-1.8z" class="st28"/>
      <path d="M497.6 414.4c.6-.3 1 0 1 .6s-.5 1.5-1 1.8c-.6.3-1 0-1-.6 0-.7.4-1.5 1-1.8z" class="st28"/>
    </g>
    <g class="line">
      <path d="M632.3 336.6c.6-.3 1 0 1 .6s-.5 1.5-1 1.8c-.6.3-1 0-1-.6s.5-1.5 1-1.8z" class="st28"/>
      <path d="M628 339c.7-.3 1 0 1 .6s-.4 1.5-1 1.8c-.5.3-1 0-1-.6s.6-1.5 1-1.8z" class="st28"/>
      <path d="M624 341.4c.5-.3 1 0 1 .6s-.6 1.5-1 1.8c-.7.3-1 0-1-.6s.4-1.5 1-1.8z" class="st28"/>
      <path d="M619.7 343.8c.6-.3 1 0 1 .6s-.5 1.5-1 1.8c-.6.3-1 0-1-.6s.4-1.4 1-1.8z" class="st28"/>
      <path d="M615.5 346.3c.6-.3 1 0 1 .6s-.5 1-1 1c-.6 0-1 0-1-1s.4-2 1-2z" class="st28"/>
      <path d="M611.3 348.7c.6-.3 1 0 1 .6s-.5 1.5-1 1.8c-.6 1-1 1-1 0s.4-1 1-2z" class="st28"/>
      <path d="M607 351c.7-.2 1 0 1 .7s-.4 1.5-1 1.8c-.5.3-1 0-1-.6s.5-2 1-2z" class="st28"/>
      <path d="M603 353.6c.5-.3 1 0 1 .6s-.6 1.5-1 1.8c-.7.3-1 0-1-.6s.3-1.5 1-1.8z" class="st28"/>
      <path d="M598.7 356c.6-.3 1 0 1 .6s-.5 1.5-1 1.8c-.6.3-1 0-1-.6s.4-1.5 1-1.8z" class="st28"/>
      <path d="M594.5 358.4c.6-.3 1 0 1 .6s-.5 1.5-1 1.8c-.6.3-1 0-1-.6s.4-1.5 1-1.8z" class="st28"/>
      <path d="M590.3 360.8c.6-.3 1 0 1 .6s-.5 1.5-1 1.8c-.6.3-1 0-1-.6s.4-1.4 1-1.8z" class="st28"/>
      <path d="M586 363.3c.7-.3 1 0 1 .6s-.4 1-1 1c-.5 0-1 0-1-1s.5-2 1-2z" class="st28"/>
      <path d="M582 365.7c.5-.3 1 0 1 .6s-.6 1.5-1 1.8c-.7 1-1 1-1 0s.3-1 1-2z" class="st28"/>
      <path d="M577.7 368c.6-.2 1 0 1 .7s-.5 1.5-1 1.8c-.6.3-1 0-1-.6s.4-2 1-2z" class="st28"/>
      <path d="M573.5 370.5c.6-.3 1 0 1 .6s-.5 2-1 2c-.6 1-1 0-1 0l1-2z" class="st28"/>
      <path d="M569.3 373c.6-.3 1 0 1 .6s-.5 1.5-1 1.8c-.6.3-1 0-1-.6s.4-1.5 1-1.8z" class="st28"/>
    </g>
    <g id="ipad">
      <g class="st1">
        <path d="M281 278V171c0-2.2 1.5-5 3.5-6.2l62-35.7h2.5l-4.5-2c-.7 0-1.6 0-2.6 1l-62 35c-2 1-4 4-4 7v107c0 1 0 2 1 2l4 3c-1 0-1-1-1-2z" class="st21"/>
        <path d="M282.3 278.7l-.2-107c0-2.2 2-5 4-6.2l62-35.7c1-.6 2-.6 3-.3l-5-2.5c0-.7-1-.6-2 0l-62 36c-2 1-3 4-3 6v107c0 1 1 2 1 2.3l5 2.6c0-1-1-1-1-3z" class="st22"/>
        <path d="M286 280.8c-2 1.2-3.7.2-3.7-2l-.2-107c0-2.3 2-5 4-6.3l62-35.7c2-1.2 4-.2 4 2v107c0 2.3-1 5-3 6.3l-62 36z" class="st36"/>
      </g>
      <path d="M286.6 266.5c-.3-.4-.5-1-.5-1.6v-91c0-2 2-5 3-6l55-32c1-1 2-1 2-1 1 0 2 1 2 2v91c0 2-1 4-3 5l-55 32c-1 1-2 0-3 0z" class="st22"/>
      <path d="M286.6 266.5c-.3-.4-.5-1-.5-1.6v-91c0-2 2-5 3-6l55-32c1-1 1-1 2-1s1 1 1 1v91c0 2-1 4-3 6l-55 32h-1z" class="st25"/>
      <path d="M286.6 266.5c-.3-.4-.5-1-.5-1.6v-91c0-2 2-5 3-6l55-32c1-1 1-1 2-1l-59 130z" class="st10"/>
      <path d="M279.8 197.7c-.6-.4-1-1.2-1-2 0-.6.3-1 .8-.8h.3s1 1 1 2c-1 0-1 1-2 0z" class="st37"/>
      <path d="M280.7 197c-.6-.3-1-1-1-2h.2c0 .4 1 1.2 1 2v.2h-1z" class="st38"/>
      <path d="M319.8 143.4l-1.2-.7-9 5.2h1.2z" class="st1 st38"/>
      <path d="M318.6 142.7v1.4h1.2z" class="st37"/>
      <path d="M279.8 188c-.4-.2-.7-.8-.7-1.3 0-.4 1-.6 1-.5 1 .3 1 1 1 1.4 0 .5 0 .6-1 .4z" class="st37"/>
      <path d="M280.4 187.7c-.4-.2-.7-.8-.7-1.3h.2v1.3z" class="st38"/>
      <path d="M321.6 256.4c1-.6 2-2 2-3.2 0-1-.7-1.5-1.5-1.3-1 0-2 2-2 3s1 1 2 0z" class="st22"/>
      <path d="M321.6 255.8c.7-.4 1.3-1.4 1.3-2.2 0-.7-1-1-1-1l-1 .2c-1 .4-2 1.4-2 2.2v.3c0 .6 0 .8 1 .5z" class="st36"/>
    </g>
    <g class="event">
      <path d="M599 185.4c1.3.6 2.6 1 4 1.3.4 1.4.8 3 1 4.5-1.6-.3-3.4-.8-5.2-1.7v-4z" class="st35"/>
      <path d="M604 210.6l-1 3-4-3.3v-4c1.6 1.2 3.4 2.7 5 4.3z" class="st35"/>
      <g class="st1">
        <path d="M589 209.6c2 5.2 5 9.2 8 11h-.3v-.2h-.3v-.2h-.2v-.2h-.2v-.2h-.2v-.2h-.2v-.2h-.2v-.2h-.2s0-.2-.2-.2-.2-.2-.3-.2c-.2 0-.2-.2-.3-.2l-.4-.3-.2-.2h-.7c-3-3-7-7-10-11l-1-2h7l1 5-1 1 2 3z" class="st35"/>
        <path d="M600.8 222.4l-2-.8 2 .8z" class="st35"/>
        <path d="M580 185l5.5 3v4.2l-5.4-3-1-1.2v-4l2 1z" class="st35"/>
        <path d="M595.3 208.3c-1.4-.6-2.7-1-4-1.3-.5-1.4-1-3-1.2-4.5 2 .3 4 .8 6 1.7v4z" class="st35"/>
        <path d="M612.3 221.7l-1.3.8c-2.5 1.2-5.5 1.3-8.8.4 0 0-.2 0-.2-1h-1l-2-1h-1.7l-.4-1c3 2 6 1 8-2l2-1-1-1c0-1 1-2 1-3l2 3 1 2 1 2z" class="st35"/>
        <path d="M605 219c.7 0 1.4-.2 2-.4-.6.2-1.3.3-2 .3z" class="st35"/>
        <path d="M578.2 188l2 1c.3 4.6 2 9.4 4.3 14-.4 0-1 .2-1.3.4l-1.4.6c-3.3-6-5.3-13-5.3-19s2-10.5 5.4-13l1 2.3 1 2c-3 1.7-4 4.7-5 8.7l-2-1v4z" class="st35"/>
        <path d="M589 192.2v-2l6.3 3.6v4l-6.3-3.5v-2z" class="st35"/>
        <path d="M597 177.2c.7.3 1.3 1 2 1.5V217c-.7 0-1.3 0-2-.4-.5-.3-1-1-1.7-1.6v-38.4c.7 0 1.2.3 1.8.6z" class="st35"/>
        <path d="M608.7 201.6v4c0 3.4-.6 6.3-1.4 8.7-.4 1.2-.8 2.2-1.3 3l-1 1.6c-2 2-4.8 3-8 1s-6-6-8-11l-1-3-1.2-5c-.7-4-1.2-7-1.3-10v-4c0-4 .6-7 1.4-9 0-2 0-3 1-3 0-1 0-1 1-2 2-3 5-4 8-2s6 5 8 11l1 2c0 1 1 3 1 4 0 3 1 6 1 10zm-3.5 2v-4c0-3-.4-5.7-1-8.4-.2-1.6-.6-3-1-4.5l-.8-1.8c-1-3-2.2-5-3.4-7-.6-1-1.2-1-1.8-2-.6-1-1.2-1-1.8-1-1.2 0-2.4 0-3.4 2l-.7 1c-.5 1-1 2-1.2 3 0 2-1 4-1 7v4c0 3 1 6 1 8 1 2 1 3 1 4l4 8 2 1h2c2 0 3-1 4-3 1-1 1-2 1-4 1-2 1-5 2-7" class="st35"/>
        <path d="M599 196l6.2 3.6v4l-6.4-3.6v-4z" class="st35"/>
        <path d="M583.2 171.3c3.3-1.6 7.6-1.3 12 .8l2 1c-3.2-1-6-1-8.2 2h-2l1 2c-.4 1-1 2-1.2 3l-2.3-3c-.4-1-1-1-1.3-2l-1.2-3h1.4z" class="st35"/>
        <path d="M594.4 171.8c-4.2-1.8-8-2-11.2-.4l-.3.2v-.2c3-1.6 7-1.4 11 .4z" class="st35"/>
        <path d="M614 204.7l2 1v4.2l-2-2-5.3-3v-4l5.4 3z" class="st35"/>
        <path d="M612.4 189.8c3.4 6.3 5.3 13 5.3 19s-2 10.5-5.4 12.8l-1.4-2.2-2-2c2-1.6 4-4.6 4-8.7l2 1v-4l-2-1c-1-4.5-2-9.3-5-13.8l1-1 1-1z" class="st35"/>
        <path d="M611 187.4l1.5 2.3-1.5.6-1.3.5-2.3.5-1.3-4.6c1 0 1 0 1-.2 0-.8-1-1.5-1-2.2v-.2c-2-5-5-9-8-11 6 3 11 9 14 15z" class="st35"/>
      </g>
      <path d="M587 207.2l2 2.4-2-2.4z" class="st35"/>
      <path d="M590 183c.4-1 1-2 1.3-3 1.3 1.3 2.6 2.4 4 3.4v4c-1.8-1.2-3.5-2.6-5.2-4.3z" class="st35"/>
    </g>
    <g class="event">
      <path d="M655.2 323l-15.5 29.7 44-25.5-15.5-11.8-6.5 10.3z" class="st35"/>
      <path d="M637.4 315.5V351l15.2-29z" class="st35"/>
      <path d="M686 287.5l-15.2 24L686 323z" class="st35"/>
      <path d="M640 311.5l21.7 9 21.7-34z" class="st35"/>
    </g>
    <g class="event">
      <path d="M317 98.4c-1.5 1-3 3.3-3 5l.2 24c0 1.8 1.3 2.6 3 1.6 1.6-1 3-3.3 3-5v-24c0-1.8-1.5-2.6-3-1.6z" class="st35"/>
      <path d="M307.6 112.7c-1.6 1-3 3.3-3 5v15c0 2 1.3 2.8 3 1.8 1.6-1 3-3.3 3-5v-15c0-2-1.4-2.7-3-1.8z" class="st35"/>
      <path d="M298 125.7c-1.6 1-3 3.3-3 5v7.6c0 2 1.3 2.7 3 1.7 1.6-1 3-3.3 3-5v-7.6c0-2-1.3-2.6-3-1.7z" class="st35"/>
    </g>
    <path d="M183.8 254.8c.5-1 1.2-1.7 2-2.2l21.4-12.3c1.4-.8 2.6-.2 2.6 1.5v46c0 1.7-1 3.7-2.5 4.5l-31 18c-1.5.8-2.7.2-2.7-1.5v-33c0-.6 0-1.4.5-2.2l10-18.8zm-3 43.2l23.3-13.5c1-.4 2-1.4 2-2.2s0-1-1-.7L181 295c-.7.4-1.3 1.4-1.3 2.2 0 1 .6 1.2 1.3.8m0-9.6l23-13.4c.8-.5 1.4-1.5 1.4-2.3 0-.8-.6-1-1.3-.7l-23 13.5c0 .4-1 1.4-1 2.2 0 .8 1 1 2 .7m0-9.6l24-13.5c1-.4 2-1.4 2-2.2 0 0 0-1-1 0l-24 13-1 2c0 1 1 2 2 1m25-27s0-1-1 0l-15 9c-1 1-1 2-1 3s1 1 2 1l15-9c1 0 2-1 2-2" class="event st35"/>
    <g id="smartcity">
      <path d="M144.4 545.6L111.2 565l-1-.7 31.6-18.4-39.8 13-1-1 23-23-31 19-1-1 33-20 1.8 1-23.3 23 39.8-14z" class="st39"/>
      <path d="M157.6 553.2l-25 24-1-.6 6-5.7-12-7-9.7 3-1-1 41-15 1 1zm-30.8 10.5l11.5 6.6 17.4-16.8-29 10.2" class="st39"/>
      <path d="M114.3 528c5 3 3.2 6-1.3 8.8l-.6.4-1-.6.7-.4c4-2.3 6-5 2-7.6s-9-1.5-13 .8c-8 5 5 12.2-4 17.4-4 2.7-10 3.7-15 .7s-3-6 2-8.8l2-1 1 .7-1 1c-4 2.3-6 5-1 7.6 4 2.5 9 1.6 13-.7 8-5-5-12 5-17.4 5-3 10-4 15-1z" class="st39"/>
      <path d="M290.3 630l-4.7 2.7-5.5-3.2-28 16.5-5-3 29-16.5-5-3.2 5-2.7z" class="st39"/>
      <path d="M153.8 585c-1.3.6-2.7 1.7-3 2.7l-1-.7c.3-1 1.6-2 3-2.8l5.2-3c5-2.8 3.2-5.3-1-7.8l-4.2-2.4-15.3 9-1-.7 33-19.3 6.7 3.8c5 3 4 5.6-.6 8.3l-3 2c-4 3-8 3-12.2 1 3 3 2.3 5-1.3 7l-5 3zm0-14.5l4 2.4c4.6 2 8.5 3 13.6 0l3-2c4-3 5-5 .7-7l-5-3-16 9" class="st39"/>
      <path d="M202.2 579l-1 .6-7.3-4.2-33 18.6-1-.6 32-18.6-7-4.2 1-.6z" class="st39"/>
      <path d="M256 609.6c5 3 4.8 6.3-.5 9.4l-3.2 2-5-3 3.5-2c2.4-1.5 2.2-2.6.6-3.6-1.7-1-3.6-1-6 .3l-18 10.4c-2.3 2-2 3-.4 4 1.7 1 3.6 1 6 0l4.6-3 5 3-4.4 3c-5.3 3-11 4-16 1-5.2-3-5-6 .4-9l17.2-10c5.4-3 11-3 16.2 0z" class="st39"/>
      <path d="M272 619.2l-33.3 19.3-5.2-3 33-19.3z" class="st39"/>
      <path d="M309.4 641l-28.8 9-11 6.3-5.2-3 11-6.4 15.6-17 5.4 3-11 11 19-7z" class="st39"/>
    </g>
  </g>
  <g id="DESIGNED_BY_FREEPIK" class="st40 st41">
    <path d="M288.5 765.2v-.2l-1 1c-.3.3-.7.4-1 .6l-1.4.2s-1 0-1-.4l-1-1-1-1.8v-2c0-1.7 1-3 1-4 1-.8 2-1.3 3-1.3s2 0 2 .4l2 1.2v-4c0-1 0-1 1-1 0-1 1-1 1-1h1c1 0 1 0 1 1v13h-1v-2m-5-4v2l1 1h1c1 0 1 0 2-1 0 0 0-1 1-1v-3l-1-1-2-1h-2l-1 2v2" class="st42"/>
    <path d="M300 762h-5.2c0 .7 0 1.2.4 1.7.2.5.5.8 1 1 .3.2.7.3 1.2.3h1l.6-.4.7-.5h2.4v2l-1 1-1 1-2 1c-1 0-3 0-4-1s-1-2-1-4c0-1 0-1 1-2 0-1 1-1 1-2s1-1 2-1h3l3 1c1 1 2 1 2 2 1 1 1 2 1 2v2c0 1 0 1-1 1m-5-1h5c0-1-1-1-1-2-1 0-1-1-2-1 0 0-1 0-1 1-1 1-1 1-1 2" class="st42"/>
    <path d="M311.7 763.3c0 .7-.2 1.3-.5 1.8s-1 1-1.5 2c-.7 1-1.5 1-2.5 1h-2.4l-1.5-1c-.3 0-.5-1-.5-1h2.3l1 1 1 1 2 1h3v-1s-1 0-1-1h-2l-1-1c-1 0-1-1-1-2s0-1 1-1 1-1 1-1c1-1 1-1 2-1h2l1 1c1 0 1 1 1 1v2l-1 1-1-1h-1l-1-1h-2v1c0 1 1 1 1 1h2c1 0 2 1 2 1 1 0 1 0 2 1v1" class="st42"/>
    <path d="M314.4 755c-.4 0-.7-.2-1-.4-.2-.2-.3-.5-.3-1s1-.6 1-.8l1-.4s1 0 1 .3c1 .2 1 .5 1 1v.8c0 .3 0 .4-1 .4m2 2v8h-1v-10c0-1 0-1 1-1 0-1 1-1 1-1h1c1 0 1 0 1 1" class="st42"/>
    <path d="M327 758v7.5c0 1 0 1.6-.3 2.2-.2.6-.5 1-1 1.5-.3.4-.8.7-1.5 1l-2.4.2c-1 0-1.7 0-2.4-.4-.7-.3-1.2-.6-1.6-1-.4-.4-.6-.8-.6-1.2 0-.3 0-.6.3-.8.2-.2.5-.3.8-.3.4 0 .7.2 1 .5 0 .2.3.3.4.5 0 .2.3.3.5.4l.7 1h1l1-1v-3l-2 2c-1 1-1 1-2 1h-2c-1 0-1-1-2-2 0 0-1-1-1-2v-2l1-2 1-1h1c1 0 1 0 2 1l1 2v-1s0-1 1-1l1 1v2m-8 4v3c0 1 1 1 2 1h1l1-1v-2c0-1 0-2-1-2s-1-1-2-1-2 1-2 1c-1 1-1 2-1 3" class="st42"/>
    <path d="M331.2 757.6v.3c.5-1 1-1 1.5-2s1.2-1 2-1h1.7s1 0 1.2 1c.2 0 .3 0 .3 1v6s0 1-1 1h-1s-1 0-1-1l-1-1v-4c0-1 0-2-1-2s-1-1-2-1h-2l-1 1v6s0 1-1 1h-1s-1 0-1-1v-9c0-1 0-1 1-1v2" class="st42"/>
    <path d="M347 762h-5.2c0 .7 0 1.2.4 1.7.2.5.5.8 1 1 .3.2.7.3 1.2.3h1l.6-.4.7-.5h2.4v2l-1 1-1 1-2 1c-1 0-3 0-4-1s-1-2-1-4c0-1 0-1 1-2 0-1 1-1 1-2s1-1 2-1h3l3 1c1 1 2 1 2 2 1 1 1 2 1 2v2c0 1 0 1-1 1m-5-1h5c0-1-1-1-1-2-1 0-1-1-2-1 0 0-1 0-1 1-1 1-1 1-1 2" class="st42"/>
    <path d="M357.5 765.2v-.2l-1 1c-.3.3-.7.4-1 .6l-1.4.2s-1 0-1-.4l-1-1-1-1.8v-2c0-1.7 1-3 1-4 1-.8 2-1.3 3-1.3s2 0 2 .4l2 1.2v-4c0-1 0-1 1-1 0-1 1-1 1-1h1c1 0 1 0 1 1v13h-1v-2m-5-4v2l1 1h1c1 0 1 0 2-1 0 0 0-1 1-1v-3l-1-1-2-1h-2l-1 2v2" class="st42"/>
    <path d="M368 753.8v4c.6-.5 1-1 1.6-1.2.5-.3 1-.4 2-.4.8 0 1.5.2 2.2.6.6.4 1.2 1 1.5 1.8.4.8.5 1.7.5 2.8 0 .8 0 1.5-.3 2.2-.2.7-.5 1.2-1 1.7s-.7 1-1.3 1c-.5.4-1 .5-1.8.5h-1l-1-.5-.6-.5-.7-.7v2c0 1 0 1-1 1h-1v-13l1-1h1s1 0 1 1c1 0 1 0 1 1m1 8c0 1 0 2 1 3 0 1 1 1 2 1s1 0 2-1c1 0 1-1 1-2v-2s0-1-1-1h-2l-1 1v2" class="st42"/>
    <path d="M379 767l.3-.6-3.2-8v-1.6c0-.2 1-.3 1-.5l1-.2c1 0 1 1 1 1l1 1 2 7 2-6 1-1h2l1 1c1 0 1 0 1 1v2l-3 9-1 2-1 1s-1 1-2 1c0 0-1 0-1-1v-1h4l1-1 1-1" class="st42"/>
    <path d="M416.7 756.4h.6v-.8c0-.8 0-1.5.3-2 .2-.4.6-.7 1-1l2-.2c1.5 0 2.3.4 2.3 1 0 .3-1 .5-1 .7 0 1-1 1-1 1h-1c-1 0-1 0-1 1v2c1 0 1 1 1 1s0 1-1 1c0 1-1 1-1 1h-1v7c0 1-1 1-1 1l-1 1h-1l-1-1v-7h-3c0-1 0-1 1-1" class="st42"/>
    <path d="M425.2 763v2c0 .6 0 1-.4 1.3-.2.3-.6.4-1 .4-.3 0-.6 0-.8-.4-.2-.3-.4-.7-.4-1.2v-7c0-1 .4-1 1.3-1v2l1-1h1s1 0 1 1v1s0 1-1 1h-2c-1 0-1 0-1 1l-1 1v4" class="st42"/>
    <path d="M437 762h-5c0 .7 0 1.2.4 1.7.2.4.5.8 1 1 .3.2.7.3 1.2.3h.8l.7-.4 1-.5h3v2l-1 1-1 1-2 1c-1 0-3 0-4-1s-1-2-1-4c0-1 0-1 1-2 0-1 1-1 1-2s1-1 2-1h2l3 1 2 2v4c0 1 0 1-1 1m-5-1h5c0-1-1-1-1-2 0 0-1-1-2-1s-1 0-2 1l-1 2" class="st42"/>
    <path d="M448 762h-5.2c0 .7 0 1.2.4 1.7.2.4.5.8 1 1 .3.2.7.3 1.2.3h.8l.8-.4.7-.5h2.4v2l-1 1-1 1-2 1c-1 0-3 0-4-1s-1-2-1-4c0-1 0-1 1-2 0-1 1-1 1-2s1-1 2-1h2c1 0 2 1 3 1l2 2 1 2v2c0 1 0 1-1 1m-5-1h5c0-1 0-1-1-2l-1-1s-1 0-1 1-1 1-1 2" class="st42"/>
    <path d="M453.6 757.6v.3c.5-1 1-1 1.5-2l2-1h2c1 0 2 1 2 2 1 1 1 1 1 3v2s0 1-1 1 0 1-1 1h-3c0-1-1-1-1-2v4c0 1 0 1-1 1 0 0-1 0-1-1v-12s0-1 1-1h2v1m5 3v-2s0-1-1-1c0-1 0-1-1-1s-1 0-2 1v2s0 1 1 2c1 0 1 1 2 1l1-1 1-1v-2" class="st42"/>
    <path d="M464 755c-.5 0-.8-.2-1-.4-.3-.2-.4-.5-.4-1s0-.6.4-.8c.3-.2.6-.4 1-.4.2 0 .5 0 .8.3.3.2.4.5.4 1s0 .6-.4.8c-.3.3-.6.4-1 .4m1.4 2v7s0 1-.4 1h-1c-.3 0-.6 0-.8-1-.2-1-.4-1-.4-2v-7c0-1 0-1 .4-1 .2-1 .5-1 1-1h.8c.2 0 .4 0 .4 1" class="st42"/>
    <path d="M473.5 765.5l-2.3-3.8-1.4 1.3v2c0 .6 0 1-.4 1.2-.3.3-.6.4-1 .4-.3 0-.6 0-.8-.4-.2-.3-.3-.7-.3-1.2v-11c0-.7 0-1 .3-1.4.2-.3.5-.5 1-.5.4 0 .7 1 1 1l.3 1v7l2-3 1-1 1 1v1c0 1-1 1-1 2l-2 1 2 4v1c0 1 0 1-1 1l-1 1h-1l-1-1" class="st42"/>
    <path d="M479.2 766.7c-.4 0-.7 0-1-.4-.3-.2-.4-.6-.4-1 0-.5 0-.8.4-1 .3-.4.6-.5 1-.5s.7 0 1 .4c.3.3.4.6.4 1 0 .5 0 .8-.4 1-.3.4-.7.5-1 .5" class="st42"/>
    <path d="M492 763.5c0 .3 0 .7-.2 1-.2.4-.5.7-1 1-.3.3-.8.6-1.4.8-.6.2-1.3.3-2 .3-1.6 0-3-.5-3.8-1.4-1-1-1.3-2.2-1.3-3.8 0-1 .2-2 .6-2.8 0-.8 1-1.4 1-2 1-.3 1-.6 3-.6 0 0 1 0 2 .3l1 .8 1 1v1c0 1 0 1-1 1l-1 1h-1l-1-1h-1c-1 0-2 1-2 1-1 1-1 2-1 3v2l1 1h2l1-1v-1h1s1 0 1 1v1" class="st42"/>
    <path d="M503.2 761.4c0 .8 0 1.5-.4 2-.2.8-.6 1.3-1 1.8-.5.5-1 .8-1.6 1-.6.3-1.3.5-2 .5s-1.6 0-2.2-.4c-.6-.2-1.2-.6-1.6-1-.5-.6-.8-1-1-1.8-.3-.6-.5-1.4-.5-2v-2.3l1-1.7c0-.5 1-.8 1-1 0-.3 1-.5 2-.5s1 0 2 .4l1 1c0 .6 1 1 1 1.8v2.2m-3 0c0-1 0-2-1-2.5-1-1-2-1-2-1h-1l-1 1v4s0 1 1 1h1c1 0 1-1 2-1v-3" class="st42"/>
    <path d="M513 761.6v3.4c0 .5 0 1-.3 1.2-.2.3-.6.4-1 .4s-.7 0-1-.4c-.2-.3-.4-.7-.4-1.2v-5.6c0-.4-.3-.7-.5-1-.2 0-.5-.3-1-.3-.8 0-1.3 1-1.6 1-.3 1-.4 2-.4 3v4c0 1 0 1-.4 2-.2 1-.6 1-1 1h-1c-.3 0-.4-1-.4-1v-8s0-1 .3-1h1s.6 0 .8 1l1 1v1l2-1c1-1 1-1 2-1h2l1 1c1 0 1-1 2-1h2l2 1 1 1c1 1 1 2 1 3v6c0 1 0 1-1 1h-1v-8h-2v1c1 1 0 1 0 2" class="st42"/>
    <path d="M392.6 761.6v-.7" class="st42"/>
    <path d="M393.3 764v-.2" class="st42"/>
    <path d="M392.8 762.5c0 .4.3.8.5 1.2l-.5-1.2z" class="st42"/>
    <path d="M402.5 751h1.3v-.8s-1-.4-2.6-.2v-.4c.4 0 .7-.5.7-1 0-.6-1-1-2-1s-1 .4-1 1v1.5l-3 1v1h4" class="st42"/>
    <path d="M393.4 754.7v-.2l-.2-.2-.5-.4s-.8 0-1.4 2v-1l-1-1h-.3v-1c0-1-.2-1-.6-1h-.7 2.3c-.4 1-.3 3-.3 3h1c0-1 .2-2 .5-2 .5-2 1.2-3 1.2-3" class="st42"/>
    <path d="M411.7 751.7c-.4 0-.7.3-.7.7v.2c-.2.2-.3.4-.3.8 0 .2 0 .3-.2.4h-.3c-.8-1-1.8-1.7-1.8-1.7l-.8 1c.6 1 1.2 1 1.7 2l1 2h1l-1-2h.6v-1h-1" class="st42"/>
    <path d="M409 761c-1.4.6-3.7 1.5-6.8 2h-7l-2.4-.5c0 .4.3.8.5 1.2 0 0 0 .2.2.2l1 1 3 2h3.3c2 0 4-1 5.7-1 1.3-1 2.6-2 3.3-3 .5-1 .8-2 1-3 0-1 .2-1 0-2-.3 0-1 1-1.8 1" class="st42"/>
    <path d="M394 755s-.8 1-1.2 2.3c-.4 1-.3 2.4-.3 2.5v1l.2.8c.7.2 5 1.2 9.5.5 3 0 5-1 6.5-1l2-1c-.2-1-1-2-1.6-3-2-3-4-3-5-4h-3l-2 1c-1 1-2 1-3 2l-1 1m12 0c1 0 2 1 2 2s0 2-1 2-1-1-1-2 1-1 2-1m-8 0c2 0 3 2 3 3 0 2-1 3-3 3s-3-1-3-3c0-1 2-2 3-2" class="st42"/>
  </g>
</svg>
